<svg width="32" height="32" viewBox="0 0 32 32" fill="none" xmlns="http://www.w3.org/2000/svg">
  <circle cx="16" cy="16" r="16" fill="#04005f"/>
  <path fill-rule="evenodd" clip-rule="evenodd" d="M12 11C12 8.79086 13.7909 7 16 7C18.2091 7 20 8.79086 20 11C20 13.2091 18.2091 15 16 15C13.7909 15 12 13.2091 12 11Z" fill="#ffffff"/>
  <path fill-rule="evenodd" clip-rule="evenodd" d="M10.7155 18.4513C11.5279 18.1107 12.6117 18 16 18C19.3855 18 20.4676 18.1102 21.2793 18.4491C22.1506 18.8128 22.6854 19.4307 22.9705 20.3294C23.0764 20.6634 22.8259 21 22.4796 21H9.51729C9.17241 21 8.92339 20.6649 9.02845 20.3327C9.31269 19.434 9.84559 18.8159 10.7155 18.4513Z" fill="#ffffff"/>
</svg>
